<?xml version="1.0" encoding="UTF-8"?>
<svg xmlns="http://www.w3.org/2000/svg" xmlns:xlink="http://www.w3.org/1999/xlink" width="152px" height="40px" viewBox="0 0 152 40" version="1.1">
<defs>
<clipPath id="clip1">
  <path d="M 0.0351562 5.507812 L 85.378906 5.507812 L 85.378906 34.34375 L 0.0351562 34.34375 Z M 0.0351562 5.507812 "/>
</clipPath>
<clipPath id="clip2">
  <path d="M 101.558594 0 L 151.777344 0 L 151.777344 39.851562 L 101.558594 39.851562 Z M 101.558594 0 "/>
</clipPath>
</defs>
<g id="surface1">
<path style=" stroke:none;fill-rule:nonzero;fill:rgb(0%,0%,0%);fill-opacity:1;" d="M 93.46875 2.625 C 94.1875 2.625 94.765625 3.304688 94.765625 4.144531 L 94.765625 35.707031 C 94.765625 36.546875 94.1875 37.226562 93.46875 37.226562 C 92.753906 37.226562 92.171875 36.546875 92.171875 35.707031 L 92.171875 4.144531 C 92.171875 3.304688 92.753906 2.625 93.46875 2.625 Z M 93.46875 2.625 "/>
<g clip-path="url(#clip1)" clip-rule="nonzero">
<path style=" stroke:none;fill-rule:nonzero;fill:rgb(0%,0%,0%);fill-opacity:1;" d="M 12.585938 27.59375 L 0.0390625 27.59375 L 0.0390625 6.121094 L 2.609375 6.121094 L 2.609375 25.539062 L 12.585938 25.539062 Z M 17.511719 9.003906 C 17.003906 9.003906 16.578125 8.835938 16.238281 8.496094 C 15.90625 8.160156 15.738281 7.738281 15.738281 7.226562 C 15.738281 6.734375 15.90625 6.324219 16.238281 6 C 16.578125 5.671875 17.003906 5.507812 17.511719 5.507812 C 18.003906 5.507812 18.421875 5.671875 18.765625 6 C 19.113281 6.324219 19.289062 6.734375 19.289062 7.226562 C 19.289062 7.738281 19.113281 8.160156 18.765625 8.496094 C 18.421875 8.835938 18.003906 9.003906 17.511719 9.003906 Z M 18.796875 27.59375 L 16.226562 27.59375 L 16.226562 12.378906 L 18.796875 12.378906 Z M 31.367188 27.964844 C 30.125 27.964844 29.019531 27.707031 28.050781 27.195312 C 27.082031 26.683594 26.339844 25.96875 25.828125 25.050781 L 25.589844 27.59375 L 23.265625 27.59375 L 23.265625 5.507812 L 25.828125 5.507812 L 25.828125 14.894531 C 26.324219 14.160156 27.023438 13.496094 27.929688 12.902344 C 28.839844 12.308594 29.996094 12.011719 31.40625 12.011719 C 32.914062 12.011719 34.230469 12.359375 35.351562 13.054688 C 36.476562 13.75 37.347656 14.699219 37.964844 15.90625 C 38.585938 17.113281 38.894531 18.484375 38.894531 20.019531 C 38.894531 21.550781 38.585938 22.917969 37.964844 24.109375 C 37.347656 25.308594 36.46875 26.25 35.335938 26.9375 C 34.199219 27.621094 32.878906 27.964844 31.367188 27.964844 Z M 31.097656 25.722656 C 32.121094 25.722656 33.015625 25.484375 33.785156 25 C 34.566406 24.523438 35.175781 23.851562 35.621094 22.992188 C 36.074219 22.136719 36.300781 21.132812 36.300781 19.988281 C 36.300781 18.84375 36.074219 17.839844 35.621094 16.980469 C 35.175781 16.121094 34.566406 15.453125 33.785156 14.96875 C 33.015625 14.488281 32.121094 14.25 31.097656 14.25 C 30.078125 14.25 29.179688 14.488281 28.40625 14.96875 C 27.632812 15.453125 27.019531 16.121094 26.570312 16.980469 C 26.121094 17.839844 25.898438 18.84375 25.898438 19.988281 C 25.898438 21.132812 26.121094 22.136719 26.570312 22.992188 C 27.019531 23.851562 27.632812 24.523438 28.40625 25 C 29.179688 25.484375 30.078125 25.722656 31.097656 25.722656 Z M 45.046875 27.59375 L 42.476562 27.59375 L 42.476562 12.378906 L 44.800781 12.378906 L 45.015625 15.292969 C 45.484375 14.292969 46.199219 13.496094 47.160156 12.902344 C 48.117188 12.308594 49.300781 12.011719 50.707031 12.011719 L 50.707031 14.710938 L 50.003906 14.710938 C 49.105469 14.710938 48.28125 14.867188 47.527344 15.183594 C 46.769531 15.503906 46.167969 16.039062 45.71875 16.796875 C 45.269531 17.554688 45.046875 18.597656 45.046875 19.925781 Z M 55.144531 9.003906 C 54.636719 9.003906 54.214844 8.835938 53.878906 8.496094 C 53.539062 8.160156 53.371094 7.738281 53.371094 7.226562 C 53.371094 6.734375 53.539062 6.324219 53.878906 6 C 54.214844 5.671875 54.636719 5.507812 55.144531 5.507812 C 55.636719 5.507812 56.054688 5.671875 56.398438 6 C 56.746094 6.324219 56.921875 6.734375 56.921875 7.226562 C 56.921875 7.738281 56.746094 8.160156 56.398438 8.496094 C 56.054688 8.835938 55.636719 9.003906 55.144531 9.003906 Z M 56.429688 27.59375 L 53.859375 27.59375 L 53.859375 12.378906 L 56.429688 12.378906 Z M 64.292969 27.59375 L 61.722656 27.59375 L 61.722656 14.558594 L 59.429688 14.558594 L 59.429688 12.378906 L 61.722656 12.378906 L 61.722656 9.742188 C 61.722656 8.269531 62.089844 7.195312 62.824219 6.519531 C 63.558594 5.84375 64.632812 5.507812 66.039062 5.507812 L 67.570312 5.507812 L 67.570312 7.714844 L 66.4375 7.714844 C 65.660156 7.714844 65.109375 7.875 64.785156 8.1875 C 64.457031 8.507812 64.292969 9.046875 64.292969 9.800781 L 64.292969 12.378906 L 68.027344 12.378906 L 68.027344 14.558594 L 64.292969 14.558594 Z M 75.433594 34.34375 L 72.742188 34.34375 L 76.503906 26.121094 L 75.617188 26.121094 L 69.589844 12.378906 L 72.375 12.378906 L 77.390625 24.222656 L 82.714844 12.378906 L 85.378906 12.378906 Z M 75.433594 34.34375 "/>
</g>
<g clip-path="url(#clip2)" clip-rule="nonzero">
<path style=" stroke:none;fill-rule:nonzero;fill:rgb(0%,0%,0%);fill-opacity:1;" d="M 151.191406 15.152344 L 128.679688 0.21875 C 128.386719 0.0234375 128.027344 -0.0429688 127.683594 0.0273438 L 102.75 5.308594 C 102.246094 5.414062 101.851562 5.804688 101.738281 6.3125 L 101.589844 6.988281 C 101.46875 7.519531 101.691406 8.070312 102.144531 8.371094 L 112.585938 15.296875 L 111.980469 18.03125 C 111.679688 19.414062 112.703125 21.085938 115.101562 22.675781 C 119.652344 25.699219 127.421875 27.277344 132.46875 26.210938 C 134.851562 25.707031 136.195312 24.699219 136.472656 23.457031 L 136.992188 21.097656 L 143.726562 19.671875 C 144.566406 20.859375 145.109375 22.300781 145.25 24.136719 C 144.566406 24.492188 144.089844 25.199219 144.089844 26.023438 C 144.089844 26.714844 144.425781 27.324219 144.9375 27.714844 C 144.359375 30.675781 143.585938 36.117188 145.125 38.527344 C 145.578125 39.238281 146.222656 39.691406 146.984375 39.835938 C 147.042969 39.847656 147.105469 39.851562 147.164062 39.851562 C 147.609375 39.851562 148.011719 39.535156 148.097656 39.074219 C 148.195312 38.558594 147.855469 38.058594 147.339844 37.960938 C 147.171875 37.929688 146.953125 37.847656 146.730469 37.496094 C 146.1875 36.648438 146.058594 34.96875 146.160156 33.074219 C 146.628906 34.542969 147.351562 35.867188 148.464844 36.601562 C 148.90625 36.894531 149.496094 36.769531 149.785156 36.328125 C 150.074219 35.886719 149.949219 35.296875 149.511719 35.003906 C 148.015625 34.015625 147.382812 30.628906 147.25 27.882812 C 147.902344 27.515625 148.347656 26.828125 148.347656 26.027344 C 148.347656 25.1875 147.859375 24.46875 147.15625 24.121094 C 147.03125 22.164062 146.523438 20.570312 145.738281 19.246094 L 150.585938 18.21875 C 151.089844 18.113281 151.488281 17.71875 151.597656 17.214844 L 151.746094 16.539062 C 151.867188 16.007812 151.644531 15.457031 151.191406 15.152344 Z M 125.382812 9.988281 C 125.402344 9.816406 125.578125 9.675781 125.902344 9.605469 C 126.550781 9.46875 127.554688 9.671875 128.136719 10.0625 C 128.433594 10.253906 128.566406 10.460938 128.542969 10.632812 L 128.449219 11.105469 C 128.425781 11.277344 128.25 11.417969 127.925781 11.488281 C 127.277344 11.625 126.277344 11.421875 125.691406 11.03125 C 125.398438 10.835938 125.265625 10.632812 125.285156 10.460938 Z M 125.382812 9.988281 "/>
</g>
</g>
</svg>
