<svg xmlns="http://www.w3.org/2000/svg" version="1.1" xmlns:xlink="http://www.w3.org/1999/xlink" xmlns:svgjs="http://svgjs.dev/svgjs" width="1500" height="397" viewBox="0 0 1500 397"><g transform="matrix(1,0,0,1,-0.9090909090909918,-0.7447259369731967)"><svg viewBox="0 0 396 105" data-background-color="#89939e" preserveAspectRatio="xMidYMid meet" height="397" width="1500" xmlns="http://www.w3.org/2000/svg" xmlns:xlink="http://www.w3.org/1999/xlink"><g id="tight-bounds" transform="matrix(1,0,0,1,0.2400000000000091,0.19696781708358913)"><svg viewBox="0 0 395.52 104.60606436583281" height="104.60606436583281" width="395.52"><g><svg viewBox="0 0 395.52 104.60606436583281" height="104.60606436583281" width="395.52"><g><svg viewBox="0 0 708.4953309716483 187.38093698046183" height="104.60606436583281" width="395.52"><g><rect width="12.227356204070196" height="162.70414209591473" x="427.52878587452926" y="12.338397442273546" fill="#ffffff" opacity="1" stroke-width="0" stroke="transparent" fill-opacity="1" class="rect-qz-0" data-fill-palette-color="primary" rx="1%" id="qz-0" data-palette-color="#ffffff"></rect></g><g transform="matrix(1,0,0,1,0,25.89707595026644)"><svg viewBox="0 0 395.52 135.58678507992894" height="135.58678507992894" width="395.52"><g id="textblocktransform"><svg viewBox="0 0 395.52 135.58678507992894" height="135.58678507992894" width="395.52" id="textblock"><g><svg viewBox="0 0 395.52 135.58678507992894" height="135.58678507992894" width="395.52"><g transform="matrix(1,0,0,1,0,0)"><svg width="395.52" viewBox="4.25 -37 140.74 48.25" height="135.58678507992894" data-palette-color="#ffffff"><path d="M28.55 0L4.25 0 4.25-35.5 8.75-35.5 8.75-4 28.55-4 28.55 0ZM37.15 0L32.75 0 32.75-26.1 37.15-26.1 37.15 0ZM37.15-31L32.75-31 32.75-36.5 37.15-36.5 37.15-31ZM57.65 0.5L57.65 0.5Q54.6 0.5 52.1-1 49.6-2.5 48.15-4.9L48.15-4.9 48.15 0 44.25 0 44.25-36.5 48.65-36.5 48.65-20.9Q50.3-23.45 52.7-25 55.1-26.55 58.3-26.55L58.3-26.55Q61-26.55 63.15-25.43 65.3-24.3 66.82-22.38 68.35-20.45 69.17-18.03 70-15.6 70-12.95L70-12.95Q70-10.2 69.07-7.78 68.15-5.35 66.45-3.48 64.75-1.6 62.52-0.55 60.3 0.5 57.65 0.5ZM56.55-3.3L56.55-3.3Q58.5-3.3 60.15-4.1 61.8-4.9 63-6.25 64.2-7.6 64.85-9.35 65.5-11.1 65.5-12.95L65.5-12.95Q65.5-15.5 64.42-17.75 63.35-20 61.42-21.38 59.5-22.75 56.95-22.75L56.95-22.75Q55.1-22.75 53.5-21.9 51.9-21.05 50.67-19.68 49.45-18.3 48.65-16.65L48.65-16.65 48.65-9.1Q48.9-7.85 49.7-6.8 50.5-5.75 51.65-4.98 52.8-4.2 54.07-3.75 55.35-3.3 56.55-3.3ZM89.19-26.25L89.19-22.25Q85.89-22.2 83.37-20.58 80.84-18.95 79.79-16.1L79.79-16.1 79.79 0 75.39 0 75.39-26.1 79.49-26.1 79.49-20.05Q80.84-22.75 83.07-24.43 85.29-26.1 87.74-26.3L87.74-26.3Q88.24-26.3 88.59-26.3 88.94-26.3 89.19-26.25L89.19-26.25ZM97.94 0L93.54 0 93.54-26.1 97.94-26.1 97.94 0ZM97.94-31L93.54-31 93.54-36.5 97.94-36.5 97.94-31ZM110.84 0L106.44 0 106.44-22.65 102.89-22.65 102.89-26.1 106.44-26.1 106.44-26.65Q106.44-29.85 107.41-32.18 108.39-34.5 110.19-35.75 111.99-37 114.44-37L114.44-37Q115.99-37 117.49-36.58 118.99-36.15 120.19-35.4L120.19-35.4 119.09-32.15Q118.39-32.65 117.36-32.95 116.34-33.25 115.34-33.25L115.34-33.25Q113.19-33.25 112.01-31.58 110.84-29.9 110.84-26.8L110.84-26.8 110.84-26.1 117.79-26.1 117.79-22.65 110.84-22.65 110.84 0ZM123.39 11L123.39 7.1Q124.04 7.15 124.69 7.23 125.34 7.3 125.69 7.3L125.69 7.3Q126.49 7.3 127.09 6.75 127.69 6.2 128.41 4.63 129.14 3.05 130.29 0L130.29 0 119.24-26.1 123.89-26.1 132.69-4.45 140.64-26.1 144.99-26.1 132.29 6.85Q131.84 8 130.96 9.03 130.09 10.05 128.74 10.65 127.39 11.25 125.49 11.25L125.49 11.25Q125.04 11.25 124.56 11.2 124.09 11.15 123.39 11L123.39 11Z" opacity="1" transform="matrix(1,0,0,1,0,0)" fill="#ffffff" class="wordmark-text-0" data-fill-palette-color="primary" id="text-0"></path></svg></g></svg></g></svg></g></svg></g><g transform="matrix(1,0,0,1,471.7649279531288,0)"><svg viewBox="0 0 236.73040301851947 187.38093698046183" height="187.38093698046183" width="236.73040301851947"><g><svg xmlns="http://www.w3.org/2000/svg" xmlns:xlink="http://www.w3.org/1999/xlink" version="1.1" x="0" y="0" viewBox="20.000127845568713 31.254523820776384 60.00030316545666 47.4924761792236" enable-background="new 0 0 100 100" xml:space="preserve" height="187.38093698046183" width="236.73040301851947" class="icon-icon-0" data-fill-palette-color="accent" id="icon-0"><path d="M79.297 49.314L52.402 31.516c-0.348-0.233-0.778-0.314-1.19-0.228l-29.788 6.291c-0.602 0.126-1.074 0.595-1.207 1.196l-0.179 0.806c-0.142 0.634 0.123 1.291 0.666 1.649l12.472 8.254-0.721 3.258c-0.363 1.648 0.86 3.642 3.725 5.537 5.44 3.6 14.722 5.484 20.748 4.211 2.849-0.601 4.456-1.802 4.784-3.28l0.621-2.813 8.047-1.699c1.001 1.415 1.653 3.131 1.818 5.32-0.817 0.423-1.383 1.265-1.383 2.25 0 0.825 0.399 1.551 1.011 2.016-0.692 3.527-1.614 10.01 0.226 12.883 0.542 0.846 1.309 1.386 2.219 1.559 0.072 0.014 0.144 0.021 0.215 0.021 0.535 0 1.012-0.379 1.116-0.925 0.117-0.617-0.288-1.213-0.904-1.331-0.2-0.037-0.462-0.134-0.729-0.55-0.649-1.014-0.801-3.015-0.681-5.273 0.561 1.752 1.424 3.328 2.753 4.203 0.528 0.349 1.232 0.2 1.576-0.325 0.345-0.524 0.199-1.229-0.325-1.575-1.788-1.178-2.543-5.216-2.704-8.49 0.779-0.435 1.312-1.257 1.312-2.211 0-1.001-0.583-1.857-1.423-2.271-0.15-2.332-0.756-4.231-1.692-5.808l5.792-1.224c0.602-0.126 1.074-0.595 1.207-1.196l0.179-0.806C80.104 50.33 79.839 49.673 79.297 49.314zM48.465 43.157c0.024-0.206 0.233-0.374 0.622-0.456 0.773-0.163 1.971 0.08 2.67 0.544 0.351 0.23 0.51 0.475 0.484 0.681l0 0-0.114 0.563h-0.001c-0.025 0.205-0.234 0.372-0.621 0.454-0.775 0.164-1.97-0.079-2.67-0.542-0.351-0.232-0.51-0.476-0.485-0.681L48.465 43.157z" fill="#ffffff" data-fill-palette-color="accent"></path></svg></g></svg></g></svg></g></svg></g><defs></defs></svg><rect width="395.52" height="104.60606436583281" fill="none" stroke="none" visibility="hidden"></rect></g></svg></g></svg>
