<svg xmlns="http://www.w3.org/2000/svg" version="1.1" xmlns:xlink="http://www.w3.org/1999/xlink" xmlns:svgjs="http://svgjs.dev/svgjs" width="128" height="128" viewBox="0 0 128 128"><g transform="matrix(0.8046875,0,0,0.8046875,12.760752631578946,22.732398572985474)"><svg viewBox="0 0 95 76" data-background-color="#ffffff" preserveAspectRatio="xMidYMid meet" height="102" width="128" xmlns="http://www.w3.org/2000/svg" xmlns:xlink="http://www.w3.org/1999/xlink"><g id="tight-bounds" transform="matrix(1,0,0,1,-0.24049999999999727,0.21161495164642474)"><svg viewBox="0 0 95.481 75.57677009670715" height="75.57677009670715" width="95.481"><g><svg viewBox="0 0 95.481 75.57677009670715" height="75.57677009670715" width="95.481"><g><svg viewBox="0 0 95.481 75.57677009670715" height="75.57677009670715" width="95.481"><g id="textblocktransform"><svg viewBox="0 0 95.481 75.57677009670715" height="75.57677009670715" width="95.481" id="textblock"><g><svg viewBox="0 0 95.481 75.57677009670715" height="75.57677009670715" width="95.481"><g><svg viewBox="0 0 95.481 75.57677009670715" height="75.57677009670715" width="95.481"><g><svg xmlns="http://www.w3.org/2000/svg" xmlns:xlink="http://www.w3.org/1999/xlink" version="1.1" x="0" y="0" viewBox="20.000127845568713 31.254523820776384 60.00030316545666 47.4924761792236" enable-background="new 0 0 100 100" xml:space="preserve" height="75.57677009670715" width="95.481" class="icon-icon-0" data-fill-palette-color="accent" id="icon-0"><path d="M79.297 49.314L52.402 31.516c-0.348-0.233-0.778-0.314-1.19-0.228l-29.788 6.291c-0.602 0.126-1.074 0.595-1.207 1.196l-0.179 0.806c-0.142 0.634 0.123 1.291 0.666 1.649l12.472 8.254-0.721 3.258c-0.363 1.648 0.86 3.642 3.725 5.537 5.44 3.6 14.722 5.484 20.748 4.211 2.849-0.601 4.456-1.802 4.784-3.28l0.621-2.813 8.047-1.699c1.001 1.415 1.653 3.131 1.818 5.32-0.817 0.423-1.383 1.265-1.383 2.25 0 0.825 0.399 1.551 1.011 2.016-0.692 3.527-1.614 10.01 0.226 12.883 0.542 0.846 1.309 1.386 2.219 1.559 0.072 0.014 0.144 0.021 0.215 0.021 0.535 0 1.012-0.379 1.116-0.925 0.117-0.617-0.288-1.213-0.904-1.331-0.2-0.037-0.462-0.134-0.729-0.55-0.649-1.014-0.801-3.015-0.681-5.273 0.561 1.752 1.424 3.328 2.753 4.203 0.528 0.349 1.232 0.2 1.576-0.325 0.345-0.524 0.199-1.229-0.325-1.575-1.788-1.178-2.543-5.216-2.704-8.49 0.779-0.435 1.312-1.257 1.312-2.211 0-1.001-0.583-1.857-1.423-2.271-0.15-2.332-0.756-4.231-1.692-5.808l5.792-1.224c0.602-0.126 1.074-0.595 1.207-1.196l0.179-0.806C80.104 50.33 79.839 49.673 79.297 49.314zM48.465 43.157c0.024-0.206 0.233-0.374 0.622-0.456 0.773-0.163 1.971 0.08 2.67 0.544 0.351 0.23 0.51 0.475 0.484 0.681l0 0-0.114 0.563h-0.001c-0.025 0.205-0.234 0.372-0.621 0.454-0.775 0.164-1.97-0.079-2.67-0.542-0.351-0.232-0.51-0.476-0.485-0.681L48.465 43.157z" fill="#000000" data-fill-palette-color="accent"></path></svg></g></svg></g></svg></g></svg></g></svg></g></svg></g><defs></defs></svg><rect width="95.481" height="75.57677009670715" fill="none" stroke="none" visibility="hidden"></rect></g></svg></g></svg>
